<svg width="56px" height="42px" viewBox="0 0 56 42" version="1.1" xmlns="http://www.w3.org/2000/svg" xmlns:xlink="http://www.w3.org/1999/xlink">
                <defs>
                    <polygon id="path-1" points="55.8857143 41.9998839 55.8857143 0.174270968 3.80952383e-05 0.174270968 3.80952383e-05 41.9998839 55.8857143 41.9998839"></polygon>
                </defs>
                <g id="Symbols" stroke="none" stroke-width="1" fill="none" fill-rule="evenodd">
                    <g id=".A/Component/.c-navigation" transform="translate(0.000000, -67.000000)">
                        <g id="Nav">
                            <g id="Logo" transform="translate(0.000000, 67.000000)">
                                <g id="Page-1">
                                    <path d="M20.9078947,10.7234043 C18.7032164,10.7234043 17.1827485,11.4716796 16.3464912,12.9879217 C15.5292398,14.5041638 15.1111111,16.9065214 15.1111111,20.2343774 C15.1111111,23.542542 15.5102339,25.9252082 16.3084795,27.342993 C17.1067251,28.7607778 18.6461988,29.4893617 20.9078947,29.4893617 C23.1695906,29.4893617 24.6900585,28.7804693 25.4883041,27.3823759 C26.2675439,25.9842826 26.6666667,23.6016164 26.6666667,20.2737604 C26.6666667,16.9262129 26.2675439,14.5041638 25.4502924,12.9879217 C24.6330409,11.4716796 23.1125731,10.7234043 20.9078947,10.7234043" id="Fill-1" fill="#41CD52"></path>
                                    <g id="Group-5">
                                        <g id="Clip-4"></g>
                                        <path d="M40.8000381,32.4774968 C38.8000381,32.4774968 37.4286095,32.0129806 36.6855619,31.0839484 C35.9428952,30.1549161 35.5619429,28.3934323 35.5619429,25.8000774 L35.5619429,17.4387871 L32.857181,17.4387871 L32.857181,14.1097548 L35.5619429,14.1097548 L35.5619429,8.88394839 L39.3905143,8.88394839 L39.3905143,14.1097548 L44.2667048,14.1097548 L44.2667048,17.4579484 L39.3905143,17.4579484 L39.3905143,25.374271 C39.3905143,26.8450452 39.5048,27.8127871 39.7143238,28.2774968 C39.9236571,28.7613677 40.4762286,28.9936258 41.3333714,28.9936258 L44.2286095,28.8773032 L44.3998476,32.0129806 C42.8381333,32.3224645 41.6379429,32.4774968 40.8000381,32.4774968 L40.8000381,32.4774968 Z M29.7714667,36.2321419 L26.1333714,37.9549161 L22.9905143,32.7095613 C22.5333714,32.8450452 21.8286095,32.9226581 20.8381333,32.9226581 C17.1619429,32.9226581 14.5905143,31.9162065 13.1428952,29.9031097 C11.6952762,27.8904 10.9714667,24.6968516 10.9714667,20.3611742 C10.9714667,16.0063355 11.7143238,12.774271 13.1809905,10.6645935 C14.6476571,8.55472258 17.2000381,7.49020645 20.8381333,7.49020645 C24.4762286,7.49020645 27.0286095,8.53556129 28.4762286,10.6452387 C29.9428952,12.7355613 30.6667048,15.9678194 30.6667048,20.3420129 C30.6667048,23.2256903 30.3619429,25.548271 29.7714667,27.3097548 C29.1617524,29.0904 28.1905143,30.4452387 26.8190857,31.374271 L29.7714667,36.2321419 Z M50.5143238,0.174270968 L48.5714667,0.174270968 L7.75241905,0.174270968 L3.80952383e-05,8.05169032 L3.80952383e-05,34.3934323 L3.80952383e-05,36.5420129 L3.80952383e-05,41.9998839 L5.37146667,41.9998839 L7.31432381,41.9998839 L48.1333714,41.9998839 L55.8857524,34.1226581 L55.8857524,7.78052903 L55.8857524,5.63233548 L55.8857524,0.174270968 L50.5143238,0.174270968 Z" id="Fill-3" fill="#41CD52" mask="url(#mask-2)"></path>
                                    </g>
                                </g>
                            </g>
                        </g>
                    </g>
                </g>
            </svg>