<svg width="405" height="543" xmlns="http://www.w3.org/2000/svg">
 <g>
  <path fill="#41cd52" d="m196.423774,15c-79.819,0 -131.518,32.703 -172.107,91.026c-7.363,10.58 -5.093,25.086 5.178,32.874l43.138,32.709c10.373,7.865 25.132,6.026 33.253,-4.148c25.049,-31.381 43.63,-49.449 82.757,-49.449c30.764,0 68.816,19.799 68.816,49.631c0,22.552 -18.617,34.134 -48.993,51.164c-35.423,19.86 -82.299,44.576 -82.299,106.405l0,9.788c0,13.255 10.745,24 24,24l72.471,0c13.255,0 24,-10.745 24,-24l0,-5.773c0,-42.86 125.268,-44.645 125.268,-160.627c0.001,-87.344 -90.601,-153.6 -175.482,-153.6zm-10.021,373.459c-38.196,0 -69.271,31.075 -69.271,69.271c0,38.195 31.075,69.27 69.271,69.27s69.271,-31.075 69.271,-69.271s-31.075,-69.27 -69.271,-69.27z" stroke-width="30" stroke="white"/>
 </g>
</svg>