<svg xmlns="http://www.w3.org/2000/svg" xmlns:xlink="http://www.w3.org/1999/xlink" width="288.00000000000006" height="106.56000000000002"><path fill="#41cd52" d="M40.39 58.90L40.39 43.42L56.66 43.42L56.66 58.90ZM15.12 58.90L15.12 43.42L31.32 43.42L31.32 58.90ZM40.39 34.99L40.39 22.54L31.32 22.54L31.32 34.99L6.48 34.99L6.48 71.28L15.12 71.28L15.12 67.32L31.32 67.32L31.32 89.78L40.39 89.78L40.39 67.32L56.66 67.32L56.66 70.92L65.66 70.92L65.66 34.99ZM120.24 42.98C117.43 50.90 113.47 57.46 108.50 62.93C102.96 57.24 98.64 50.54 95.54 42.98ZM140.90 42.98L140.90 34.63L109.58 34.63L115.78 32.69C114.91 29.74 112.75 25.13 110.88 21.82L101.74 24.48C103.39 27.65 104.98 31.68 105.77 34.63L75.38 34.63L75.38 42.98L86.69 42.98C90.58 53.14 95.54 61.78 102.02 68.90C94.54 74.74 85.25 78.84 74.02 81.65C75.74 83.59 78.26 87.62 79.20 89.64C90.79 86.33 100.44 81.58 108.36 75.10C115.92 81.43 125.21 86.18 136.51 89.21C137.81 86.83 140.33 83.09 142.27 81.22C131.54 78.70 122.47 74.52 115.06 68.76C121.32 61.78 126.22 53.35 129.89 42.98ZM192.24 42.98C189.43 50.90 185.47 57.46 180.50 62.93C174.96 57.24 170.64 50.54 167.54 42.98ZM212.90 42.98L212.90 34.63L181.58 34.63L187.78 32.69C186.91 29.74 184.75 25.13 182.88 21.82L173.74 24.48C175.39 27.65 176.98 31.68 177.77 34.63L147.38 34.63L147.38 42.98L158.69 42.98C162.58 53.14 167.54 61.78 174.02 68.90C166.54 74.74 157.25 78.84 146.02 81.65C147.74 83.59 150.26 87.62 151.20 89.64C162.79 86.33 172.44 81.58 180.36 75.10C187.92 81.43 197.21 86.18 208.51 89.21C209.81 86.83 212.33 83.09 214.27 81.22C203.54 78.70 194.47 74.52 187.06 68.76C193.32 61.78 198.22 53.35 201.89 42.98ZM275.90 27.22C274.61 32.62 271.94 39.89 269.64 44.35L276.41 46.44C278.78 42.12 281.66 35.42 284.11 29.30ZM256.90 43.13C255.60 38.74 253.01 32.11 250.63 26.93L243.72 29.45C245.95 34.63 248.54 41.62 249.62 46.08ZM245.66 60.48C244.37 58.54 238.68 50.33 236.52 47.66L236.52 45.29L244.66 45.29L244.66 37.37L236.52 37.37L236.52 22.54L228.46 22.54L228.46 37.37L219.24 37.37L219.24 45.29L227.16 45.29C225.29 53.78 221.54 63.72 217.51 69.41C218.74 71.50 220.61 74.88 221.40 77.33C224.14 73.44 226.44 67.68 228.46 61.49L228.46 89.71L236.52 89.71L236.52 58.25C238.25 61.42 239.98 64.73 240.84 67.03ZM267.62 22.82L259.42 22.82L259.42 49.10L244.22 49.10L244.22 57.24L274.39 57.24L274.39 63.43L245.23 63.43L245.23 71.06L274.39 71.06L274.39 77.62L242.57 77.62L242.57 85.82L274.39 85.82L274.39 88.85L282.82 88.85L282.82 49.10L267.62 49.10Z"/></svg>